<?xml version="1.0" encoding="UTF-8"?>
<svg width="106px" height="100px" viewBox="0 0 106 100" version="1.1" xmlns="http://www.w3.org/2000/svg" xmlns:xlink="http://www.w3.org/1999/xlink">
    <title>Group</title>
    <g id="Page-2" stroke="none" stroke-width="1" fill="none" fill-rule="evenodd">
        <g id="MAIN---full" transform="translate(-314.000000, 0.000000)">
            <g id="Group" transform="translate(314.000000, 0.000000)">
                <path d="M96.3932995,30.1506599 L74.2274112,30.1506599 C69.3987407,30.1506599 65.4850761,34.0633361 65.4850761,38.8917766 L65.4850761,61.0572589 C65.4850761,65.8842423 69.3999226,69.8012183 74.2274112,69.8012183 L96.3932995,69.8012183 C101.220712,69.8012183 105.135635,65.8843183 105.135635,61.0572589 L105.135635,38.8917766 C105.135635,34.0633996 101.22183,30.1506599 96.3932995,30.1506599 Z M74.2274112,33.1963452 L96.3932995,33.1963452 C99.5399303,33.1963452 102.089949,35.7456706 102.089949,38.8917766 L102.089949,61.0572589 C102.089949,64.202577 99.5382821,66.755533 96.3932995,66.755533 L74.2274112,66.755533 C71.082379,66.755533 68.5307614,64.2025275 68.5307614,61.0572589 L68.5307614,38.8917766 C68.5307614,35.7455938 71.0806541,33.1963452 74.2274112,33.1963452 Z" id="Path" fill="#46A8A5" fill-rule="nonzero"></path>
                <g transform="translate(0.000000, 37.309645)" fill="#0D638C" fill-rule="nonzero">
                    <path d="M0.0286294416,7.53380711 C0.0286294416,5.60994924 0.700101523,3.97380711 2.04365482,2.6257868 C3.38720812,1.27796954 5.4657868,0.603857868 8.27959391,0.603857868 C10.399797,0.603857868 12.4276142,1.10314721 14.3636548,2.10152284 L14.3636548,5.44365482 C12.6349239,4.35309645 10.7390863,3.80771574 8.67634518,3.80771574 C5.11167513,3.80771574 3.3293401,5.04974619 3.3293401,7.53360406 C3.3293401,8.20020305 3.64263959,8.78192893 4.26923858,9.27857868 C4.89583756,9.77522843 5.66923858,10.1721827 6.58923858,10.4692386 C7.50923858,10.7660914 8.51695431,11.1506599 9.61258883,11.6233503 C10.7082234,12.0958376 11.7173604,12.5987817 12.64,13.1317766 C13.5626396,13.6649746 14.3354315,14.4464975 14.9583756,15.4763452 C15.5809137,16.5061929 15.8925888,17.7057868 15.8925888,19.0751269 C15.8925888,21.1754315 15.1370558,22.8160406 13.626599,23.9973604 C12.1161421,25.1784772 10.0290355,25.7691371 7.36568528,25.7691371 C5.00101523,25.7691371 2.65989848,25.182335 0.341522843,24.0085279 L0.341522843,20.4749239 C2.53319797,21.8682234 4.77664975,22.5648731 7.07228426,22.5648731 C10.7403046,22.5648731 12.5803046,21.4018274 12.5918782,19.0751269 C12.5918782,18.0816244 12.2814213,17.2335025 11.6603046,16.5305584 C11.0391878,15.8280203 10.2688325,15.3189848 9.34903553,15.0038579 L6.31350254,13.9315736 C5.2093401,13.5317766 4.19796954,13.1228426 3.27918782,12.7047716 C2.36040609,12.2867005 1.58883249,11.6353299 0.964873096,10.7506599 C0.340304569,9.86659898 0.0286294416,8.79431472 0.0286294416,7.53380711 Z" id="Path"></path>
                    <path d="M19.16,21.0509645 C18.6625381,19.7457868 18.4140102,18.1624365 18.4140102,16.3005076 C18.4140102,14.4387817 18.6627411,12.8552284 19.16,11.5502538 C19.6572589,10.2452792 20.3342132,9.2680203 21.1904569,8.61847716 C22.0467005,7.96893401 22.9230457,7.50883249 23.8198985,7.23837563 C24.7163452,6.96771574 25.6968528,6.83228426 26.7606091,6.83228426 C27.8243655,6.83228426 28.8046701,6.96791878 29.7013198,7.23837563 C30.5977665,7.50903553 31.4743147,7.96913706 32.3305584,8.61847716 C33.186802,9.26822335 33.8635533,10.2452792 34.3610152,11.5502538 C34.8584772,12.8552284 35.1074112,14.4387817 35.1074112,16.3005076 C35.1074112,18.1624365 34.8584772,19.7457868 34.3610152,21.0509645 C33.8635533,22.3559391 33.186802,23.333401 32.3305584,23.9827411 C31.4743147,24.6322843 30.5977665,25.0925888 29.7013198,25.3632487 C28.8046701,25.6335025 27.8243655,25.7691371 26.7606091,25.7691371 C25.6968528,25.7691371 24.7163452,25.6335025 23.8198985,25.3632487 C22.9230457,25.0925888 22.0467005,24.6322843 21.1904569,23.9827411 C20.3342132,23.333401 19.6574619,22.3559391 19.16,21.0509645 Z M22.1025381,12.9086294 C21.8438579,13.7975635 21.7145178,14.9283249 21.7145178,16.3007107 C21.7145178,17.6732995 21.8438579,18.8038579 22.1025381,19.6929949 C22.3612183,20.582132 22.7496447,21.2414213 23.2672081,21.671066 C23.7845685,22.1009137 24.3078173,22.3872081 24.8369543,22.5303553 C25.3658883,22.6735025 26.0071066,22.7449746 26.7606091,22.7449746 C27.5139086,22.7449746 28.1549239,22.6735025 28.684264,22.5303553 C29.213198,22.3872081 29.7364467,22.1009137 30.2540102,21.671066 C30.7713706,21.2414213 31.1595939,20.582132 31.4182741,19.6929949 C31.6769543,18.8038579 31.8064975,17.6732995 31.8064975,16.3007107 C31.8064975,14.9283249 31.6769543,13.7977665 31.4182741,12.9086294 C31.1595939,12.0194924 30.7711675,11.360203 30.2540102,10.9303553 C29.7364467,10.5007107 29.213198,10.2144162 28.684264,10.071269 C28.1551269,9.92812183 27.5139086,9.85624365 26.7606091,9.85624365 C26.0073096,9.85624365 25.3658883,9.92812183 24.8369543,10.071269 C24.3078173,10.2144162 23.7843655,10.5007107 23.2672081,10.9303553 C22.7496447,11.360203 22.3612183,12.0194924 22.1025381,12.9086294 Z" id="Shape"></path>
                    <path d="M37.1114721,10.5372589 L37.1114721,7.64893401 L39.5825381,7.64893401 L39.5825381,6.78598985 C39.5825381,2.31248731 41.5409137,0.0759390863 45.4580711,0.0759390863 C46.1147208,0.0759390863 46.7541117,0.158172589 47.3762437,0.322436548 L47.3762437,3.17563452 C46.9037563,3.08182741 46.4661929,3.03472081 46.0629442,3.03472081 C45.5214213,3.03472081 45.1096447,3.05827411 44.8274112,3.10517766 C44.5449746,3.15228426 44.2194924,3.28426396 43.8509645,3.50152284 C43.4820305,3.71898477 43.2172589,4.09766497 43.0560406,4.63756345 C42.8946193,5.17786802 42.8142132,5.89401015 42.8142132,6.78619289 L42.8142132,7.64913706 L47.3762437,7.64913706 L47.3762437,10.5374619 L42.8142132,10.5374619 L42.8142132,25.6485279 L39.5825381,25.6485279 L39.5825381,10.5374619 L37.1114721,10.5374619 L37.1114721,10.5372589 Z" id="Path"></path>
                    <path d="M49.7914721,10.4308629 L49.7914721,7.60832487 L52.8674112,7.60832487 L52.8674112,2.26314721 L56.0990863,2.26314721 L56.0990863,7.60832487 L60.7993909,7.60832487 L60.7993909,10.4308629 L56.0990863,10.4308629 L56.0990863,20.8507614 C56.0990863,22.2542132 56.968731,22.955736 58.7084264,22.955736 C58.72,22.955736 58.7313706,22.955736 58.7431472,22.955736 C59.5494416,22.955736 60.2349239,22.7805076 60.7995939,22.4294416 L60.7995939,25.4194924 C59.9928934,25.7526904 59.186599,25.9193909 58.3803046,25.9193909 C58.3569543,25.9193909 58.3283249,25.9193909 58.2938071,25.9193909 C57.8674112,25.9193909 57.4123858,25.866599 56.9285279,25.7614213 C56.4446701,25.6556345 55.8657868,25.4473096 55.1916751,25.1364467 C54.5175635,24.8255838 53.9616244,24.2856853 53.5240609,23.5169543 C53.0860914,22.7486294 52.8674112,21.7951269 52.8674112,20.6566497 L52.8674112,10.4308629 L49.7914721,10.4308629 Z" id="Path"></path>
                </g>
                <g transform="translate(75.126904, 39.949239)" fill-rule="nonzero" id="Path">
                    <g transform="translate(0.203046, 5.482234)" fill="#46A8A5">
                        <polygon points="0.155329949 16.7175635 0.155329949 0.32142132 3.55167513 0.32142132 3.55167513 16.7175635"></polygon>
                        <path d="M6.53068913,16.7175635 C6.53068913,12.9784772 6.53482234,9.23736041 6.53068913,5.49340102 C6.52873096,4.62436548 6.57035533,3.75126904 6.54456853,2.87918782 C6.49116751,1.16467005 7.68,1.09360406 9.06741117,0.681015228 C10.4852792,0.258477157 11.9565482,0.0337055838 13.4359391,0.0337055838 C15.4883249,0.0337055838 17.0990863,0.574213198 18.2629442,1.65380711 C19.4280203,2.73319797 20.0091371,4.23228426 20.0091371,6.14680203 L20.0091371,16.7175635 L16.9805076,16.7175635 L16.9805076,5.91329949 C16.9805076,4.9484264 16.7384772,4.18700508 16.2491371,3.62923858 C15.7610152,3.07086294 14.7817259,2.79269036 13.3092386,2.79269036 C11.9872081,2.79269036 10.7145178,2.99187817 9.49604061,3.38822335 L9.49604061,16.7175635 L6.53068913,16.7175635 L6.53068913,16.7175635 Z"></path>
                    </g>
                    <path d="M3.95918782,3.10497462 C3.95918782,3.51857868 3.62335025,3.85502538 3.20832487,3.85502538 L0.907817259,3.85502538 C0.49177665,3.85502538 0.156954315,3.51857868 0.156954315,3.10497462 L0.156954315,0.800609137 C0.156954315,0.388020305 0.49177665,0.0525888325 0.907817259,0.0525888325 L3.20832487,0.0525888325 C3.62335025,0.0525888325 3.95918782,0.388020305 3.95918782,0.800609137 L3.95918782,3.10497462 Z" fill="#B29686"></path>
                </g>
            </g>
        </g>
    </g>
</svg>